<svg width="400" height="110" viewBox="0 0 400 110" xmlns="http://www.w3.org/2000/svg">
  <!-- AIMS Full Logo with Wordmark — Dark Theme -->
  <circle cx="55" cy="15"  r="9.5" fill="#6d28d9"/>
  <circle cx="85" cy="32"  r="9.5" fill="#7c3aed"/>
  <circle cx="85" cy="78"  r="9.5" fill="#6d28d9"/>
  <circle cx="55" cy="95"  r="9.5" fill="#7c3aed"/>
  <circle cx="25" cy="78"  r="9.5" fill="#6d28d9"/>
  <circle cx="25" cy="32"  r="9.5" fill="#7c3aed"/>
  <line x1="55" y1="42" x2="55" y2="25"  stroke="#8b5cf6" stroke-width="2.5" opacity="0.9"/>
  <line x1="64" y1="47" x2="77" y2="37"  stroke="#8b5cf6" stroke-width="2.5" opacity="0.9"/>
  <line x1="64" y1="63" x2="77" y2="73"  stroke="#7c3aed" stroke-width="2.2" opacity="0.75"/>
  <line x1="55" y1="68" x2="55" y2="86"  stroke="#7c3aed" stroke-width="2.2" opacity="0.75"/>
  <line x1="46" y1="63" x2="33" y2="73"  stroke="#7c3aed" stroke-width="2.2" opacity="0.75"/>
  <line x1="46" y1="47" x2="33" y2="37"  stroke="#8b5cf6" stroke-width="2.5" opacity="0.9"/>
  <circle cx="55" cy="55" r="16" fill="#1a0838"/>
  <circle cx="55" cy="55" r="10" fill="#7c3aed"/>
  <circle cx="55" cy="55" r="16" fill="none" stroke="#b91c1c" stroke-width="2.5"/>
  <circle cx="55" cy="55" r="4"  fill="#c084fc"/>
  <text x="126" y="72" font-family="'Inter', -apple-system, BlinkMacSystemFont, sans-serif" font-size="58" font-weight="800" letter-spacing="-3" fill="#a855f7">AIMS</text>
  <line x1="126" y1="84" x2="390" y2="84" stroke="#3b0764" stroke-width="0.8" opacity="0.6"/>
  <text x="127" y="100" font-family="'Inter', -apple-system, BlinkMacSystemFont, sans-serif" font-size="13" font-weight="300" letter-spacing="0.5" fill="#5b21b6">보험 설계사 플랫폼</text>
</svg>
